:FULLY-SPECIFIED
:FORCE-ALL-JOINTS-BE-3DOF
:DEGREES
1
root 6.24314 16.836 -28.1378 9.0217 -2.52979 -3.05774
lfemur -20.3712 2.30257 -19.9954
ltibia 35.927 0 0
lfoot -38.654 3.93715 0
ltoes 38.9541 0 0
rfemur -19.4747 0.22019 19.5256
rtibia 36.0342 0 0
rfoot -30.3779 -10.4967 0
rtoes 21.4483 0 0
lowerback -2.05144 3.66971 -5.03766
upperback -2.66728 5.00355 3.49279
thorax -2.36397 2.67023 6.42441
lowerneck -9.84699 -2.36864 1.94815
upperneck -1.37933 -3.32542 -1.65382
head 1.16433 -1.69823 -0.975663
lclavicle -1.65488e-14 -3.69739e-14 0
lhumerus -41.7253 -10.8128 99.8312
lradius 34.5094 0 0
lwrist 2.17521 0 0
lhand -10.5949 9.65639 0
lfingers 7.12502 0 0
lthumb 15.4107 39.062 0
rclavicle -1.65488e-14 -3.69739e-14 0
rhumerus -43.273 -4.86223 -84.2703
rradius 40.4763 0 0
rwrist 9.89469 0 0
rhand -23.7965 -22.476 0
rfingers 7.12502 0 0
rthumb 2.67393 -52.439 0
2
root 6.23446 16.84 -28.1306 9.07568 -2.60055 -3.01642
lfemur -20.3234 2.30391 -20.0138
ltibia 35.7992 0 0
lfoot -38.5776 4.0147 0
ltoes 38.8979 0 0
rfemur -19.3209 0.493941 19.5012
rtibia 35.703 0 0
rfoot -30.3361 -10.7471 0
rtoes 21.4861 0 0
lowerback -2.25791 3.66404 -4.95996
upperback -2.62912 5.00019 3.40619
thorax -2.19283 2.65951 6.30655
lowerneck -9.85592 -2.35672 1.98374
upperneck -1.42714 -3.31482 -1.59409
head 1.15096 -1.69196 -0.961974
lclavicle -5.91383e-15 -2.70915e-14 0
lhumerus -41.749 -10.858 99.695
lradius 34.5885 0 0
lwrist 2.29656 0 0
lhand -10.6874 8.84048 0
lfingers 7.12502 0 0
lthumb 15.3216 38.2528 0
rclavicle -5.91383e-15 -2.70915e-14 0
rhumerus -43.1855 -4.88327 -84.4261
rradius 40.4435 0 0
rwrist 9.93871 0 0
rhand -23.8513 -22.4139 0
rfingers 7.12502 0 0
rthumb 2.62101 -52.3775 0
3
root 6.22578 16.8441 -28.1234 9.12966 -2.6713 -2.97511
lfemur -20.2756 2.30526 -20.0321
ltibia 35.6715 0 0
lfoot -38.5011 4.09225 0
ltoes 38.8417 0 0
rfemur -19.1672 0.767693 19.4768
rtibia 35.3718 0 0
rfoot -30.2944 -10.9975 0
rtoes 21.5239 0 0
lowerback -2.46438 3.65836 -4.88227
upperback -2.59096 4.99682 3.31958
thorax -2.0217 2.64879 6.18869
lowerneck -9.86484 -2.3448 2.01933
upperneck -1.47496 -3.30421 -1.53436
head 1.1376 -1.68569 -0.948286
lclavicle 4.72114e-15 -1.7209e-14 0
lhumerus -41.7728 -10.9031 99.5588
lradius 34.6675 0 0
lwrist 2.41791 0 0
lhand -10.7799 8.02457 0
lfingers 7.12502 0 0
lthumb 15.2325 37.4436 0
rclavicle 4.72114e-15 -1.7209e-14 0
rhumerus -43.098 -4.90431 -84.582
rradius 40.4107 0 0
rwrist 9.98272 0 0
rhand -23.9061 -22.3518 0
rfingers 7.12502 0 0
rthumb 2.56808 -52.316 0
4
root 6.2171 16.8481 -28.1162 9.18364 -2.74206 -2.93379
lfemur -20.2278 2.3066 -20.0505
ltibia 35.5437 0 0
lfoot -38.4247 4.1698 0
ltoes 38.7855 0 0
rfemur -19.0134 1.04144 19.4524
rtibia 35.0406 0 0
rfoot -30.2526 -11.2479 0
rtoes 21.5617 0 0
lowerback -2.67085 3.65269 -4.80457
upperback -2.5528 4.99346 3.23298
thorax -1.85056 2.63807 6.07083
lowerneck -9.87377 -2.33288 2.05492
upperneck -1.52277 -3.29361 -1.47463
head 1.12423 -1.67942 -0.934597
lclavicle 1.53561e-14 -7.32661e-15 0
lhumerus -41.7965 -10.9483 99.4226
lradius 34.7466 0 0
lwrist 2.53926 0 0
lhand -10.8724 7.20866 0
lfingers 7.12502 0 0
lthumb 15.1434 36.6344 0
rclavicle 1.53561e-14 -7.32661e-15 0
rhumerus -43.0105 -4.92535 -84.7378
rradius 40.3779 0 0
rwrist 10.0267 0 0
rhand -23.9609 -22.2897 0
rfingers 7.12502 0 0
rthumb 2.51516 -52.2545 0
5
root 6.20842 16.8521 -28.1089 9.23761 -2.81282 -2.89248
lfemur -20.18 2.30794 -20.0689
ltibia 35.4159 0 0
lfoot -38.3482 4.24736 0
ltoes 38.7292 0 0
rfemur -18.8596 1.3152 19.4281
rtibia 34.7093 0 0
rfoot -30.2108 -11.4983 0
rtoes 21.5994 0 0
lowerback -2.87731 3.64702 -4.72688
upperback -2.51463 4.99009 3.14637
thorax -1.67943 2.62735 5.95296
lowerneck -9.88269 -2.32097 2.09051
upperneck -1.57059 -3.28301 -1.41491
head 1.11087 -1.67315 -0.920909
lclavicle 2.59911e-14 2.55581e-15 0
lhumerus -41.8203 -10.9935 99.2865
lradius 34.8257 0 0
lwrist 2.6606 0 0
lhand -10.965 6.39275 0
lfingers 7.12502 0 0
lthumb 15.0542 35.8251 0
rclavicle 2.59911e-14 2.55581e-15 0
rhumerus -42.9229 -4.94638 -84.8937
rradius 40.3451 0 0
rwrist 10.0708 0 0
rhand -24.0157 -22.2275 0
rfingers 7.12502 0 0
rthumb 2.46223 -52.1931 0
6
root 6.19974 16.8561 -28.1017 9.29159 -2.88358 -2.85116
lfemur -20.1322 2.30928 -20.0873
ltibia 35.2881 0 0
lfoot -38.2718 4.32491 0
ltoes 38.673 0 0
rfemur -18.7058 1.58895 19.4037
rtibia 34.3781 0 0
rfoot -30.169 -11.7487 0
rtoes 21.6372 0 0
lowerback -3.08378 3.64135 -4.64918
upperback -2.47647 4.98673 3.05977
thorax -1.50829 2.61663 5.8351
lowerneck -9.89162 -2.30905 2.1261
upperneck -1.6184 -3.27241 -1.35518
head 1.0975 -1.66688 -0.90722
lclavicle 3.66261e-14 1.24382e-14 0
lhumerus -41.844 -11.0387 99.1503
lradius 34.9048 0 0
lwrist 2.78195 0 0
lhand -11.0575 5.57684 0
lfingers 7.12502 0 0
lthumb 14.9651 35.0159 0
rclavicle 3.66261e-14 1.24382e-14 0
rhumerus -42.8354 -4.96742 -85.0495
rradius 40.3123 0 0
rwrist 10.1148 0 0
rhand -24.0705 -22.1654 0
rfingers 7.12502 0 0
rthumb 2.40931 -52.1316 0
